<svg width="50" height="44" viewBox="0 0 50 44" fill="none" xmlns="http://www.w3.org/2000/svg">
<path d="M24.7682 44L3.31831 19.3046L46.2181 19.3046L24.7682 44Z" fill="white"/>
<path d="M24.7682 12.5298C24.7682 10.8844 24.478 9.25504 23.9142 7.73485C23.3505 6.21467 22.5241 4.83339 21.4824 3.66989C20.4406 2.50639 19.2039 1.58346 17.8428 0.953774C16.4817 0.324093 15.0229 -7.19243e-08 13.5497 0C12.0764 7.19243e-08 10.6176 0.324093 9.25652 0.953775C7.89542 1.58346 6.6587 2.50639 5.61696 3.66989C4.57522 4.83339 3.74887 6.21467 3.18508 7.73485C2.6213 9.25504 2.33112 10.8844 2.33112 12.5298L13.5497 12.5298H24.7682Z" fill="white"/>
<path d="M47.2053 12.5298C47.2053 10.8844 46.9151 9.25504 46.3513 7.73485C45.7876 6.21467 44.9612 4.83339 43.9195 3.66989C42.8777 2.50639 41.641 1.58346 40.2799 0.953774C38.9188 0.324093 37.46 -7.19243e-08 35.9868 0C34.5135 7.19243e-08 33.0547 0.324093 31.6936 0.953775C30.3325 1.58346 29.0958 2.50639 28.054 3.66989C27.0123 4.83339 26.186 6.21467 25.6222 7.73485C25.0584 9.25504 24.7682 10.8844 24.7682 12.5298L35.9868 12.5298H47.2053Z" fill="white"/>
<rect x="2.33112" y="12.2384" width="44.8742" height="4.95364" fill="white"/>
</svg>
